# xmcd
#
# Track frame offsets: 
#        150
#        10009
#        36609
#        55737
#        76508
#        93937
#        118032
#        133606
#        151241
#        168937
#
# Disc length: 2496 seconds
#
# Revision: 0
# Processed by: cddbd v1.5.2PL0 Copyright (c) Steve Scherf et al.
# Submitted via: ExactAudioCopy v1.3
#
DISCID=6d09be0a
DTITLE=Poco - The Wildwood Sessions
DYEAR=2003
DGENRE=Country Rock
TTITLE0=Grand Junction
TTITLE1=Cajun Moon
TTITLE2=Save A Corner Of Your Heart For Me
TTITLE3=If Your Heart Needs A Hand
TTITLE4=Cain’s Blood
TTITLE5=Magnolia
TTITLE6=Father's Day
TTITLE7=For The Love Of Mary
TTITLE8=Do What You Do
TTITLE9=On The Way Home
EXTD=
EXTT0=
EXTT1=
EXTT2=
EXTT3=
EXTT4=
EXTT5=
EXTT6=
EXTT7=
EXTT8=
EXTT9=
PLAYORDER=
